<svg id="visual" viewBox="0 0 960 540" width="960" height="540" xmlns="http://www.w3.org/2000/svg" xmlns:xlink="http://www.w3.org/1999/xlink" version="1.1"><rect x="0" y="0" width="960" height="540" fill="#151A25"></rect><defs><linearGradient id="grad1_0" x1="43.8%" y1="0%" x2="100%" y2="100%"><stop offset="14.444444444444446%" stop-color="#151a25" stop-opacity="1"></stop><stop offset="85.55555555555554%" stop-color="#151a25" stop-opacity="1"></stop></linearGradient></defs><defs><linearGradient id="grad2_0" x1="0%" y1="0%" x2="56.3%" y2="100%"><stop offset="14.444444444444446%" stop-color="#151a25" stop-opacity="1"></stop><stop offset="85.55555555555554%" stop-color="#151a25" stop-opacity="1"></stop></linearGradient></defs><g transform="translate(960, 0)"><path d="M0 351C-28.2 321.6 -56.3 292.2 -92.1 283.4C-127.9 274.7 -171.3 286.6 -197.5 271.8C-223.7 257.1 -232.7 215.6 -255.6 185.7C-278.6 155.8 -315.6 137.5 -333.8 108.5C-352 79.4 -351.5 39.7 -351 0L0 0Z" fill="#00bcd4"></path></g><g transform="translate(0, 540)"><path d="M0 -351C32 -332.4 63.9 -313.8 99.2 -305.3C134.5 -296.8 173.1 -298.5 206.3 -284C239.5 -269.4 267.3 -238.7 282.3 -205.1C297.4 -171.6 299.8 -135.1 309.1 -100.4C318.4 -65.8 334.7 -32.9 351 0L0 0Z" fill="#00bcd4"></path></g></svg>