<svg id="visual" viewBox="0 0 960 540" width="960" height="540" xmlns="http://www.w3.org/2000/svg" xmlns:xlink="http://www.w3.org/1999/xlink" version="1.1"><rect x="0" y="0" width="960" height="540" fill="#151a25"></rect><g transform="translate(567.2438296025641 312.53325757062714)"><path d="M167.7 -297.4C190.1 -214.6 162.1 -129.1 192.6 -57.3C223.2 14.4 312.3 72.4 307.9 104.5C303.6 136.6 205.9 142.7 139 206.3C72.1 269.9 36.1 391 4.8 384.3C-26.5 377.7 -52.9 243.5 -131.7 183.7C-210.5 124 -341.6 138.8 -413.8 92.8C-486 46.9 -499.3 -59.8 -463.2 -144.2C-427.2 -228.6 -341.7 -290.7 -256.3 -352.9C-170.8 -415.2 -85.4 -477.6 -6.4 -468.8C72.7 -460 145.4 -380.1 167.7 -297.4" fill="none" stroke="#00bcd4" stroke-width="6"></path></g></svg>