<svg id="visual" viewBox="0 0 960 540" width="960" height="540" xmlns="http://www.w3.org/2000/svg" xmlns:xlink="http://www.w3.org/1999/xlink" version="1.1"><rect x="0" y="0" width="960" height="540" fill="#151a25"></rect><g transform="translate(332.41705510621875 212.48167576700732)"><path d="M165.3 -159.2C260.3 -117.3 415.3 -108.9 479.5 -40.7C543.8 27.5 517.4 155.5 443.4 230C369.4 304.6 247.8 325.7 131.3 373.6C14.9 421.5 -96.4 496.2 -135.4 448.7C-174.3 401.2 -140.9 231.6 -118.7 134.3C-96.5 36.9 -85.7 11.9 -119.5 -60.1C-153.4 -132.1 -231.9 -251.1 -219.4 -307.5C-207 -364 -103.5 -358 -34.2 -317.3C35.1 -276.5 70.3 -201.1 165.3 -159.2" fill="none" stroke="#00bcd4" stroke-width="6"></path></g></svg>